<svg xmlns="http://www.w3.org/2000/svg" viewBox="0 0 144.35 141.35"><defs><style>.cls-1{fill:#ffbd18;}</style></defs><title>coinsAsset 8</title><g id="Layer_2" data-name="Layer 2"><g id="Layer_1-2" data-name="Layer 1"><polygon class="cls-1" points="39.97 16.85 51.14 23.3 69.15 12.9 69.15 0 39.97 16.85"/><polygon class="cls-1" points="37.75 20.7 37.75 54.4 48.92 47.95 48.92 27.15 37.75 20.7"/><polygon class="cls-1" points="73.59 0 73.59 12.9 91.61 23.3 102.78 16.85 73.59 0"/><polygon class="cls-1" points="71.37 16.75 53.36 27.15 53.36 47.95 71.37 58.35 89.39 47.95 89.39 27.15 71.37 16.75"/><polygon class="cls-1" points="93.83 27.15 93.83 47.95 105 54.4 105 20.7 93.83 27.15"/><polygon class="cls-1" points="51.14 51.79 39.97 58.25 69.15 75.1 69.15 62.19 51.14 51.79"/><polygon class="cls-1" points="91.61 51.79 73.59 62.19 73.59 75.1 102.78 58.25 91.61 51.79"/><polygon class="cls-1" points="79.32 83.11 90.49 89.56 108.5 79.16 108.5 66.26 79.32 83.11"/><polygon class="cls-1" points="77.1 86.95 77.1 120.66 88.27 114.2 88.27 93.41 77.1 86.95"/><polygon class="cls-1" points="112.95 66.26 112.95 79.16 130.96 89.56 142.13 83.11 112.95 66.26"/><polygon class="cls-1" points="110.73 83.01 92.72 93.41 92.72 114.2 110.73 124.6 128.74 114.2 128.74 93.41 110.73 83.01"/><polygon class="cls-1" points="133.18 93.41 133.18 114.2 144.35 120.66 144.35 86.95 133.18 93.41"/><polygon class="cls-1" points="90.49 118.05 79.32 124.5 108.5 141.35 108.5 128.45 90.49 118.05"/><polygon class="cls-1" points="130.96 118.05 112.95 128.45 112.95 141.35 142.13 124.5 130.96 118.05"/><polygon class="cls-1" points="2.22 83.11 13.4 89.56 31.41 79.16 31.41 66.26 2.22 83.11"/><polygon class="cls-1" points="0 86.95 0 120.66 11.18 114.2 11.18 93.41 0 86.95"/><polygon class="cls-1" points="35.85 66.26 35.85 79.16 53.86 89.56 65.04 83.11 35.85 66.26"/><polygon class="cls-1" points="33.63 83.01 15.62 93.41 15.62 114.2 33.63 124.6 51.64 114.2 51.64 93.41 33.63 83.01"/><polygon class="cls-1" points="56.08 93.41 56.08 114.2 67.26 120.66 67.26 86.95 56.08 93.41"/><polygon class="cls-1" points="13.4 118.05 2.22 124.5 31.41 141.35 31.41 128.45 13.4 118.05"/><polygon class="cls-1" points="53.86 118.05 35.85 128.45 35.85 141.35 65.04 124.5 53.86 118.05"/></g></g></svg>