<svg xmlns="http://www.w3.org/2000/svg" viewBox="0 0 104.91 117.14"><defs><style>.cls-1{fill:#ffbd18;}</style></defs><title>coinAsset 7</title><g id="Layer_2" data-name="Layer 2"><g id="Layer_1-2" data-name="Layer 1"><polygon class="cls-1" points="3.46 26.28 20.9 36.35 48.99 20.13 48.99 0 3.46 26.28"/><polygon class="cls-1" points="0 32.28 0 84.85 17.43 74.79 17.43 42.35 0 32.28"/><polygon class="cls-1" points="55.92 0 55.92 20.13 84.01 36.35 101.44 26.28 55.92 0"/><polygon class="cls-1" points="52.45 26.13 24.36 42.35 24.36 74.79 52.45 91.01 80.55 74.79 80.55 42.35 52.45 26.13"/><polygon class="cls-1" points="87.47 42.35 87.47 74.79 104.91 84.85 104.91 32.28 87.47 42.35"/><polygon class="cls-1" points="20.9 80.79 3.46 90.85 48.99 117.14 48.99 97.01 20.9 80.79"/><polygon class="cls-1" points="84.01 80.79 55.92 97.01 55.92 117.14 101.44 90.85 84.01 80.79"/></g></g></svg>