<?xml version="1.0" encoding="utf-8"?>
<!-- Generator: Adobe Illustrator 22.0.0, SVG Export Plug-In . SVG Version: 6.00 Build 0)  -->
<svg version="1.1" id="Capa_1" xmlns="http://www.w3.org/2000/svg" xmlns:xlink="http://www.w3.org/1999/xlink" x="0px" y="0px"
	 viewBox="0 0 512 512" style="enable-background:new 0 0 512 512;" xml:space="preserve">
<path d="M463.4,87.6H195.3c-7.4-21.9-28.1-37.7-52.4-37.7S97.8,65.7,90.5,87.6H48.6c-9.7,0-17.6,7.9-17.6,17.6s7.9,17.6,17.6,17.6
	h41.8c7.4,21.9,28.1,37.7,52.4,37.7s45.1-15.8,52.4-37.7h268.1c9.7,0,17.6-7.9,17.6-17.6S473.1,87.6,463.4,87.6z M142.9,125.3
	c-11.1,0-20.1-9-20.1-20.1s9-20.1,20.1-20.1s20.1,9,20.1,20.1S154,125.3,142.9,125.3z"/>
<path d="M463.4,238.4h-41.8c-7.4-21.9-28.1-37.7-52.4-37.7s-45.1,15.8-52.4,37.7H48.6c-9.7,0-17.6,7.9-17.6,17.6
	c0,9.7,7.9,17.6,17.6,17.6h268.1c7.4,21.9,28.1,37.7,52.4,37.7s45.1-15.8,52.4-37.7h41.8c9.7,0,17.6-7.9,17.6-17.6
	C481,246.3,473.1,238.4,463.4,238.4z M369.1,276.1c-11.1,0-20.1-9-20.1-20.1c0-11.1,9-20.1,20.1-20.1s20.1,9,20.1,20.1
	C389.2,267.1,380.2,276.1,369.1,276.1z"/>
<path d="M463.4,389.2H270.7c-7.4-21.9-28.1-37.7-52.4-37.7s-45.1,15.8-52.4,37.7H48.6c-9.7,0-17.6,7.9-17.6,17.6
	c0,9.7,7.9,17.6,17.6,17.6h117.3c7.4,21.9,28.1,37.7,52.4,37.7s45.1-15.8,52.4-37.7h192.7c9.7,0,17.6-7.9,17.6-17.6
	C481,397.1,473.1,389.2,463.4,389.2z M218.3,426.9c-11.1,0-20.1-9-20.1-20.1s9-20.1,20.1-20.1c11.1,0,20.1,9,20.1,20.1
	C238.4,417.9,229.4,426.9,218.3,426.9z"/>
<ellipse cx="144.5" cy="105.1" rx="35.2" ry="37"/>
<ellipse cx="370.4" cy="257" rx="28.8" ry="34"/>
<ellipse cx="222.6" cy="409" rx="33.4" ry="32.3"/>
</svg>
