<svg xmlns="http://www.w3.org/2000/svg" viewBox="0 0 753.08 1017.51"><defs><style>.cls-1{fill:#fff;}</style></defs><title>logoAsset 1</title><g id="Layer_2" data-name="Layer 2"><g id="Layer_1-2" data-name="Layer 1"><path class="cls-1" d="M692.93,163.78C582.72,22.46,587.42,26,581.54,25.42L409,2.19c-43.48-5.86-73,1.75-88.11,3.12a9.25,9.25,0,1,0,2.47,18.33c15.3-1.4,42.73-8.56,83.18-3.12L525,36.48,376.54,66.73,228.07,36.48l51.32-6.92a9.25,9.25,0,1,0-2.47-18.33L171.55,25.42h0l-.14,0-.42.07-.27.05-.23.05-.31.09-.49.14-.19.07-.09,0-.27.1-.49.22-.21.1-.23.12-.22.13c-4,2.34-2.06,2.51-107.8,137.15a9.23,9.23,0,0,0-1,9.84C62.91,181,53,166.43,257.13,437.38a9.25,9.25,0,0,0,14.77-11.14L92.61,188.6l144.87,45.64C241,243.4,347.07,523.29,349,528.48L298,460.82A9.25,9.25,0,0,0,283.22,472c53.46,70.84,59,78.18,59.35,78.61a43.94,43.94,0,0,0,25,13.93c1.33.23,16.82.22,18.12,0C397,562.28,406.49,555.92,411,550L591.53,310.69a9.25,9.25,0,0,0-14.77-11.14L404,528.49,515.6,234.24l144.88-45.63-57.71,76.48a9.25,9.25,0,1,0,14.76,11.14c77.48-102.78,73.3-96.55,76.36-102.59A9.24,9.24,0,0,0,692.93,163.78ZM376.54,90.21l111.59,127.3H265ZM82,165.86,169.74,53.33l59.49,158.91ZM187.12,47l172,35.05L247.78,209ZM377.56,546.14h-2L257.94,236H495.15ZM505.3,209,394,82.06,566,47Zm18.56,3.21L583.35,53.33,671.1,165.86Z"/><path class="cls-1" d="M13,784.21a10.09,10.09,0,0,1-7.32-2.83,9.56,9.56,0,0,1-2.92-7.2V631a9.67,9.67,0,0,1,10-10H62.9A52,52,0,0,1,87,626.44a42.62,42.62,0,0,1,16.72,15,40.15,40.15,0,0,1,6.17,22.15,33.24,33.24,0,0,1-5.75,19.12,37.86,37.86,0,0,1-15.36,13.06,42,42,0,0,1,22.26,13.59q8.46,10,8.46,25.91a47.92,47.92,0,0,1-6.69,25.28,46.56,46.56,0,0,1-18.6,17.35,57.41,57.41,0,0,1-27.16,6.27Zm9.61-95.71H62.9q12.12,0,19.95-6.27t7.84-18.6q0-12.11-7.84-18.07t-19.95-6H22.57Zm0,77.11H67.08a39.63,39.63,0,0,0,17.13-3.55,26.8,26.8,0,0,0,11.7-10.35q4.19-6.78,4.18-16.4,0-9.19-4.18-15.46a26,26,0,0,0-11.7-9.51,42.93,42.93,0,0,0-17.13-3.24H22.57Z"/><path class="cls-1" d="M201.65,785q-16.72,0-29.78-7.42a53.51,53.51,0,0,1-20.48-20.48q-7.41-13-7.42-30,0-17.13,7.42-30.2a53.65,53.65,0,0,1,20.48-20.48q13.06-7.41,29.78-7.41t29.67,7.41A54.56,54.56,0,0,1,251.8,697q7.53,13.06,7.52,30.2,0,16.92-7.42,30a53.65,53.65,0,0,1-20.37,20.48Q218.57,785,201.65,785Zm0-17.34a38.4,38.4,0,0,0,20.06-5.23,37.27,37.27,0,0,0,13.79-14.31,42.8,42.8,0,0,0,5-21,43.43,43.43,0,0,0-5-21.11,37.15,37.15,0,0,0-13.79-14.42,41.15,41.15,0,0,0-40.12,0,37.15,37.15,0,0,0-13.79,14.42,43.31,43.31,0,0,0-5,21.11,42.69,42.69,0,0,0,5,21,37.27,37.27,0,0,0,13.79,14.31A38.4,38.4,0,0,0,201.65,767.7Z"/><path class="cls-1" d="M339.77,785.25a54.38,54.38,0,0,1-26.12-6.16A45,45,0,0,1,295.47,761q-6.69-11.91-6.68-29V679.52a9.82,9.82,0,1,1,19.64,0V732q0,12.13,4.6,20a29.12,29.12,0,0,0,12.43,11.7,39.33,39.33,0,0,0,17.66,3.87,36.65,36.65,0,0,0,16.82-3.76,31.56,31.56,0,0,0,11.81-10,24.22,24.22,0,0,0,4.38-14.21h12.54a44.89,44.89,0,0,1-6.69,23.4,45.87,45.87,0,0,1-17.44,16.41A51.09,51.09,0,0,1,339.77,785.25Zm46-1a9.35,9.35,0,0,1-6.9-2.72,9.61,9.61,0,0,1-2.72-7.1V679.52a9.62,9.62,0,0,1,2.72-7.11,9.35,9.35,0,0,1,6.9-2.72,9.33,9.33,0,0,1,9.82,9.83v94.87a9.33,9.33,0,0,1-9.82,9.82Z"/><path class="cls-1" d="M443,784.41a9.38,9.38,0,0,1-7.1-2.82,9.66,9.66,0,0,1-2.72-7V679.72a9.83,9.83,0,1,1,19.64,0v94.87a9.73,9.73,0,0,1-2.71,7A9.4,9.4,0,0,1,443,784.41Zm87.14,0a9.63,9.63,0,0,1-9.82-9.82V722.14q0-12.1-4.49-19.95a28.5,28.5,0,0,0-12.33-11.7,39.36,39.36,0,0,0-17.66-3.87A36.62,36.62,0,0,0,469,690.38a31.48,31.48,0,0,0-11.81,10,24.23,24.23,0,0,0-4.39,14.21H440.08a44.65,44.65,0,0,1,6.68-23.51,46,46,0,0,1,17.56-16.3,51.64,51.64,0,0,1,24.86-5.95A53.9,53.9,0,0,1,515.09,675a45,45,0,0,1,18.18,18.08Q540,705,540,722.14v52.45a9.63,9.63,0,0,1-9.82,9.82Z"/><path class="cls-1" d="M569.63,690.8a9,9,0,0,1-6.47-2.4,7.66,7.66,0,0,1-2.51-5.75,8.06,8.06,0,0,1,2.51-6.27,9.2,9.2,0,0,1,6.47-2.3h50a9.21,9.21,0,0,1,6.47,2.3,8.1,8.1,0,0,1,2.51,6.27,7.69,7.69,0,0,1-2.51,5.75,9,9,0,0,1-6.47,2.4Zm48.27,93.41a35.18,35.18,0,0,1-19.12-5.33,38.06,38.06,0,0,1-13.37-14.42,43.09,43.09,0,0,1-4.91-20.79V643.15a9.3,9.3,0,0,1,9.61-9.61,9.63,9.63,0,0,1,7.11,2.72,9.38,9.38,0,0,1,2.71,6.89V743.67q0,9.2,5.12,15.25A16.13,16.13,0,0,0,617.9,765h6.69a7.66,7.66,0,0,1,6,2.72,10,10,0,0,1,2.4,6.89,8.7,8.7,0,0,1-3.14,6.9,11.68,11.68,0,0,1-7.94,2.72Z"/><path class="cls-1" d="M703.37,780a8.81,8.81,0,0,1-11.91-4.6L644,682.65a8.32,8.32,0,0,1-.52-7.11,10.26,10.26,0,0,1,12-5.22,9,9,0,0,1,5,4.81l45.76,92.78a11.64,11.64,0,0,1,1.36,7.1C707.3,777.24,705.88,778.91,703.37,780Zm-24,54.12a12,12,0,0,1-4.6-1q-8.57-3.75-4.81-12.12l65-145.65q4-7.94,12.12-4.59,8.78,3.76,4.81,12.12L686.65,828.3Q684.36,834.15,679.34,834.15Z"/><path class="cls-1" d="M10,1016.47a9.67,9.67,0,0,1-10-10V863.29a9.67,9.67,0,0,1,10-10,9.37,9.37,0,0,1,7.1,2.83,10,10,0,0,1,2.72,7.2v61.65h98.63V863.29a9.57,9.57,0,0,1,2.93-7.2,9.81,9.81,0,0,1,7.1-2.83,9.39,9.39,0,0,1,7.11,2.83,10,10,0,0,1,2.71,7.2v143.14a10,10,0,0,1-2.71,7.21,9.43,9.43,0,0,1-7.11,2.83,9.85,9.85,0,0,1-7.1-2.83,9.58,9.58,0,0,1-2.93-7.21V942.7H19.85v63.73a10,10,0,0,1-2.72,7.21A9.41,9.41,0,0,1,10,1016.47Z"/><path class="cls-1" d="M226.73,1017.51a54.35,54.35,0,0,1-26.12-6.16,44.88,44.88,0,0,1-18.18-18.08q-6.69-11.91-6.69-29V911.77a9.82,9.82,0,1,1,19.64,0v52.45q0,12.12,4.6,20a29.12,29.12,0,0,0,12.43,11.7,39.36,39.36,0,0,0,17.66,3.87A36.77,36.77,0,0,0,246.89,996a31.48,31.48,0,0,0,11.81-10,24.23,24.23,0,0,0,4.39-14.21h12.53a45,45,0,0,1-6.68,23.4,46,46,0,0,1-17.45,16.41A51.16,51.16,0,0,1,226.73,1017.51Zm46-1a9.35,9.35,0,0,1-6.9-2.72,9.61,9.61,0,0,1-2.71-7.11V911.77a9.6,9.6,0,0,1,2.71-7.1,9.35,9.35,0,0,1,6.9-2.72,9.33,9.33,0,0,1,9.82,9.82v94.87a9.33,9.33,0,0,1-9.82,9.83Z"/><path class="cls-1" d="M330,1016.67a9.41,9.41,0,0,1-7.1-2.82,9.7,9.7,0,0,1-2.72-7V912a9.83,9.83,0,1,1,19.65,0v94.87a9.7,9.7,0,0,1-2.72,7A9.42,9.42,0,0,1,330,1016.67Zm87.14,0a9.63,9.63,0,0,1-9.82-9.82V954.4q0-12.12-4.49-19.95a28.58,28.58,0,0,0-12.33-11.71,39.46,39.46,0,0,0-17.66-3.86A36.62,36.62,0,0,0,356,922.64a31.48,31.48,0,0,0-11.81,10,24.22,24.22,0,0,0-4.38,14.21H327a44.66,44.66,0,0,1,6.69-23.51,45.94,45.94,0,0,1,17.55-16.3,51.64,51.64,0,0,1,24.86-6,54,54,0,0,1,25.92,6.16,45,45,0,0,1,18.18,18.08q6.67,11.91,6.68,29v52.45a9.63,9.63,0,0,1-9.82,9.82Z"/><path class="cls-1" d="M456.59,923.06a8.94,8.94,0,0,1-6.48-2.41,7.67,7.67,0,0,1-2.51-5.74,8.08,8.08,0,0,1,2.51-6.27,9.22,9.22,0,0,1,6.48-2.3h49.94a9.25,9.25,0,0,1,6.48,2.3,8.08,8.08,0,0,1,2.5,6.27,7.66,7.66,0,0,1-2.5,5.74,9,9,0,0,1-6.48,2.41Zm48.27,93.41a35.14,35.14,0,0,1-19.12-5.33,38.08,38.08,0,0,1-13.38-14.42,43.09,43.09,0,0,1-4.91-20.79V875.41a9.3,9.3,0,0,1,9.61-9.61,9.62,9.62,0,0,1,7.11,2.72,9.34,9.34,0,0,1,2.72,6.89V975.93q0,9.2,5.12,15.25a16.11,16.11,0,0,0,12.85,6.06h6.68a7.64,7.64,0,0,1,6,2.72,10,10,0,0,1,2.4,6.89,8.72,8.72,0,0,1-3.13,6.9,11.7,11.7,0,0,1-7.94,2.72Z"/><path class="cls-1" d="M599.1,1017.3q-17.15,0-30.51-7.42a53.65,53.65,0,0,1-20.9-20.48q-7.52-13-7.52-30,0-17.13,7.1-30.2A52.29,52.29,0,0,1,567,908.74q12.65-7.41,28.94-7.41,16.1,0,27.9,7.2a47.42,47.42,0,0,1,18.07,19.86q6.27,12.65,6.27,29.15a8.15,8.15,0,0,1-2.5,6.16,9,9,0,0,1-6.48,2.4H553.54V950.43h85.89l-8.78,6.06a44.85,44.85,0,0,0-4.18-19.74,33.08,33.08,0,0,0-11.91-13.69q-7.72-5-18.6-5-11.91,0-20.58,5.33a34.22,34.22,0,0,0-13.17,14.73,49,49,0,0,0-4.49,21.32,41.92,41.92,0,0,0,5.33,21.21,38.85,38.85,0,0,0,14.63,14.63,42.34,42.34,0,0,0,21.42,5.32,41,41,0,0,0,13.89-2.5,42.4,42.4,0,0,0,11.39-5.85,11.24,11.24,0,0,1,6.27-2.2,8.44,8.44,0,0,1,5.85,2,9.21,9.21,0,0,1,3.55,6.37c.14,2.3-.9,4.28-3.13,6a56.29,56.29,0,0,1-17.55,9.29A62.49,62.49,0,0,1,599.1,1017.3Z"/><path class="cls-1" d="M685,1016.47c-3.07,0-5.43-.8-7.1-2.41s-2.51-4-2.51-7.21V911.77c0-3.06.83-5.43,2.51-7.1s4-2.51,7.1-2.51,5.61.8,7.21,2.4,2.4,4,2.4,7.21v95.08q0,4.6-2.4,7.11C690.59,1015.63,688.18,1016.47,685,1016.47Zm-.63-71.05a44.06,44.06,0,0,1,6.38-22.78,45.58,45.58,0,0,1,39.18-21.73q11.49,0,17.34,3.65t4.6,9.1a8.52,8.52,0,0,1-2.61,4.38,7.46,7.46,0,0,1-4.29,1.67,18.46,18.46,0,0,1-5.43-.41q-13-2.09-23.09.62t-16,9.2q-5.85,6.48-5.85,16.3Z"/></g></g></svg>