<svg id="Layer_1" data-name="Layer 1" xmlns="http://www.w3.org/2000/svg" xmlns:xlink="http://www.w3.org/1999/xlink" viewBox="0 0 428.65 145.8"><defs><style>.cls-1{fill:#64dfdf;}.cls-2{opacity:0.07;isolation:isolate;}.cls-3{fill:#80ffdb;}.cls-4{fill:#a0f0f2;}.cls-5{fill:#7de2e2;}.cls-6{fill:#fff;}.cls-7{fill:url(#linear-gradient);}.cls-8{fill:url(#linear-gradient-2);}.cls-9{fill:url(#linear-gradient-3);}.cls-10{fill:url(#linear-gradient-4);}.cls-11{fill:url(#linear-gradient-5);}.cls-12{fill:url(#linear-gradient-6);}.cls-13{fill:url(#linear-gradient-7);}.cls-14{fill:url(#linear-gradient-8);}.cls-15{fill:url(#linear-gradient-9);}.cls-16{fill:url(#linear-gradient-10);}.cls-17{fill:url(#linear-gradient-11);}.cls-18{fill:url(#linear-gradient-12);}</style><linearGradient id="linear-gradient" x1="241.89" y1="78.38" x2="445.45" y2="181.51" gradientUnits="userSpaceOnUse"><stop offset="0" stop-color="#5e60ce"/><stop offset="1" stop-color="#7400b8"/></linearGradient><linearGradient id="linear-gradient-2" x1="248.28" y1="65.76" x2="451.84" y2="168.9" xlink:href="#linear-gradient"/><linearGradient id="linear-gradient-3" x1="257.25" y1="48.06" x2="460.81" y2="151.2" xlink:href="#linear-gradient"/><linearGradient id="linear-gradient-4" x1="263.99" y1="34.76" x2="467.54" y2="137.9" xlink:href="#linear-gradient"/><linearGradient id="linear-gradient-5" x1="273.51" y1="15.96" x2="477.07" y2="119.09" xlink:href="#linear-gradient"/><linearGradient id="linear-gradient-6" x1="274.97" y1="13.09" x2="478.53" y2="116.23" xlink:href="#linear-gradient"/><linearGradient id="linear-gradient-7" x1="216.81" y1="118.92" x2="420.36" y2="222.06" xlink:href="#linear-gradient"/><linearGradient id="linear-gradient-8" x1="224.1" y1="104.52" x2="427.66" y2="207.66" xlink:href="#linear-gradient"/><linearGradient id="linear-gradient-9" x1="230.84" y1="91.22" x2="434.4" y2="194.35" xlink:href="#linear-gradient"/><linearGradient id="linear-gradient-10" x1="240.37" y1="72.42" x2="443.93" y2="175.55" xlink:href="#linear-gradient"/><linearGradient id="linear-gradient-11" x1="244.59" y1="64.08" x2="448.15" y2="167.22" xlink:href="#linear-gradient"/><linearGradient id="linear-gradient-12" x1="251.31" y1="50.83" x2="454.86" y2="153.97" xlink:href="#linear-gradient"/></defs><title>logo</title><path class="cls-1" d="M181.39,52.91H74.71c-7.66,0-21.86,13.74-26.22,20L39.38,86.23a20.68,20.68,0,0,0,2.13,26.15l72.29,74.75a19.81,19.81,0,0,0,28.54,0l72.29-74.75a20.66,20.66,0,0,0,2.12-26.15L200.63,63A23.49,23.49,0,0,0,181.39,52.91Z" transform="translate(-32.93 -50.14)"/><path class="cls-2" d="M100.33,52.91H74.71c-7.66,0-21.86,13.74-26.22,20L39.38,86.23a20.68,20.68,0,0,0,2.13,26.15l72.29,74.75a19.55,19.55,0,0,0,12.49,6s-49.45-59.92-49.45-92.9C76.84,78.87,90.58,62.13,100.33,52.91Z" transform="translate(-32.93 -50.14)"/><path class="cls-3" d="M160.82,100.16h59.46a20.52,20.52,0,0,0-3.56-13.93L200.59,63a23.45,23.45,0,0,0-8.69-7.56Z" transform="translate(-32.93 -50.14)"/><path class="cls-3" d="M95.28,100.16h65.58L128.07,52.91Z" transform="translate(-32.93 -50.14)"/><path class="cls-4" d="M64.2,55.41C60.79,57.16,50.73,69.68,48.45,73L39.34,86.23a20.52,20.52,0,0,0-3.56,13.93H95.24Z" transform="translate(-32.93 -50.14)"/><path class="cls-5" d="M35.82,100.16a20.47,20.47,0,0,0,5.69,12.18L113.8,187.1a19.83,19.83,0,0,0,28.54,0l72.29-74.76a20.55,20.55,0,0,0,5.69-12.18Z" transform="translate(-32.93 -50.14)"/><path class="cls-2" d="M76.84,100.16h-41a20.47,20.47,0,0,0,5.69,12.18L113.8,187.1a19.58,19.58,0,0,0,12.49,6S76.84,133.13,76.84,100.16Z" transform="translate(-32.93 -50.14)"/><path class="cls-2" d="M76.84,100.16A53,53,0,0,1,81.09,79.7L64.2,55.41C60.79,57.16,50.73,69.68,48.45,73L39.34,86.23a20.58,20.58,0,0,0-3.56,13.93Z" transform="translate(-32.93 -50.14)"/><path class="cls-6" d="M219,84.63,202.9,61.37a26.18,26.18,0,0,0-21.48-11.23H74.71A26.21,26.21,0,0,0,53.23,61.37L42.87,76.13a2.78,2.78,0,1,0,4.56,3.19L57.79,64.56a20,20,0,0,1,5.58-5.43L89.93,97.39H38.51a17.75,17.75,0,0,1,3.15-9.57l5.88-8.46A2.78,2.78,0,1,0,43,76.17l-5.88,8.46a23.46,23.46,0,0,0,2.39,29.64L111.79,189a22.63,22.63,0,0,0,32.56,0l72.29-74.76A23.56,23.56,0,0,0,219,84.63ZM198.31,64.56l16.13,23.26a17.75,17.75,0,0,1,3.15,9.57H166.17l26.56-38.26A20.56,20.56,0,0,1,198.31,64.56Zm-10.7-7.89L160.82,95.26,133.38,55.72h48A21,21,0,0,1,187.61,56.67Zm-32.1,40.68H100.59L128,57.81ZM74.71,55.72h48L95.28,95.26,68.49,56.67A21.21,21.21,0,0,1,74.71,55.72ZM43.52,110.4a18,18,0,0,1-4.33-7.47H93.27l28.8,86.33a16.68,16.68,0,0,1-6.26-4.14Zm169.1,0-72.29,74.76a17,17,0,0,1-6.3,4.14l8.5-25.5a2.79,2.79,0,0,0-5.28-1.79L128,189.6,99.11,102.93H157l-15.9,47.66a2.8,2.8,0,0,0,1.74,3.53,2.66,2.66,0,0,0,3.53-1.75l16.51-49.44h54.08A18.34,18.34,0,0,1,212.62,110.4Z" transform="translate(-32.93 -50.14)"/><path class="cls-7" d="M251.43,110.73a2.81,2.81,0,0,1-2.08-.8,2.69,2.69,0,0,1-.83-2V67.23a2.75,2.75,0,0,1,2.65-2.84H265.6a14.75,14.75,0,0,1,6.84,1.55,12.18,12.18,0,0,1,4.75,4.26,11.43,11.43,0,0,1,1.75,6.29,9.49,9.49,0,0,1-1.63,5.42,10.77,10.77,0,0,1-4.37,3.71,12,12,0,0,1,6.32,3.86,11,11,0,0,1,2.41,7.36,13.72,13.72,0,0,1-1.9,7.18,13.23,13.23,0,0,1-5.28,4.92,16.31,16.31,0,0,1-7.72,1.78Zm2.73-27.17H265.6a8.75,8.75,0,0,0,5.66-1.78,6.41,6.41,0,0,0,2.23-5.28,6,6,0,0,0-2.23-5.13,9.14,9.14,0,0,0-5.66-1.71H254.14Zm0,21.89h12.62a11.34,11.34,0,0,0,4.87-1,7.69,7.69,0,0,0,3.32-2.94,8.75,8.75,0,0,0,1.19-4.66A7.76,7.76,0,0,0,275,92.46a7.37,7.37,0,0,0-3.32-2.7,12.12,12.12,0,0,0-4.87-.92H254.14Z" transform="translate(-32.93 -50.14)"/><path class="cls-8" d="M305,111a16.75,16.75,0,0,1-8.45-2.11,15.18,15.18,0,0,1-5.82-5.81,16.92,16.92,0,0,1-2.1-8.52,17.15,17.15,0,0,1,2.1-8.58,15.25,15.25,0,0,1,5.82-5.81,17.93,17.93,0,0,1,16.88,0A15.51,15.51,0,0,1,319.23,86a18.26,18.26,0,0,1,0,17.1,15.22,15.22,0,0,1-5.78,5.81A16.93,16.93,0,0,1,305,111Zm0-4.92a11,11,0,0,0,5.7-1.49,10.52,10.52,0,0,0,3.91-4.06,13.3,13.3,0,0,0,0-12,10.46,10.46,0,0,0-3.91-4.09,11.66,11.66,0,0,0-11.39,0,10.48,10.48,0,0,0-3.92,4.09,13.3,13.3,0,0,0,0,12,10.54,10.54,0,0,0,3.92,4.06,10.92,10.92,0,0,0,5.69,1.5Z" transform="translate(-32.93 -50.14)"/><path class="cls-9" d="M344.21,111a15.45,15.45,0,0,1-7.42-1.75,12.77,12.77,0,0,1-5.16-5.14,16.5,16.5,0,0,1-1.89-8.23V81a2.79,2.79,0,0,1,5.57,0h0v14.9a11.13,11.13,0,0,0,1.31,5.68,8.32,8.32,0,0,0,3.53,3.32,11.14,11.14,0,0,0,5,1.1,10.42,10.42,0,0,0,4.78-1.07,8.93,8.93,0,0,0,3.35-2.84,6.91,6.91,0,0,0,1.25-4h3.56a12.74,12.74,0,0,1-1.9,6.64,13,13,0,0,1-5,4.66A14.43,14.43,0,0,1,344.21,111Zm13.06-.28a2.67,2.67,0,0,1-2-.78,2.72,2.72,0,0,1-.77-2V81a2.76,2.76,0,0,1,.77-2,2.62,2.62,0,0,1,2-.77,2.65,2.65,0,0,1,2.79,2.5,1.41,1.41,0,0,1,0,.29V108a2.65,2.65,0,0,1-2.5,2.79h-.29Z" transform="translate(-32.93 -50.14)"/><path class="cls-10" d="M373.52,110.79a2.65,2.65,0,0,1-2-.8,2.74,2.74,0,0,1-.78-2V81.07a2.79,2.79,0,0,1,5.58-.26V108a2.77,2.77,0,0,1-.77,2A2.68,2.68,0,0,1,373.52,110.79Zm24.74,0a2.73,2.73,0,0,1-2.78-2.68v-15a11.26,11.26,0,0,0-1.28-5.66,8.1,8.1,0,0,0-3.5-3.33,11.13,11.13,0,0,0-5-1.09,10.45,10.45,0,0,0-4.79,1.06,9.1,9.1,0,0,0-3.35,2.84,6.92,6.92,0,0,0-1.25,4h-3.61a12.72,12.72,0,0,1,1.9-6.68,13.07,13.07,0,0,1,5-4.63A14.79,14.79,0,0,1,386.63,78,15.34,15.34,0,0,1,394,79.73a12.68,12.68,0,0,1,5.16,5.13,16.5,16.5,0,0,1,1.91,8.25V108a2.73,2.73,0,0,1-2.67,2.79h-.13Z" transform="translate(-32.93 -50.14)"/><path class="cls-11" d="M409.48,84.21a2.56,2.56,0,0,1-1.84-.68,2.16,2.16,0,0,1-.71-1.63,2.25,2.25,0,0,1,.71-1.78,2.64,2.64,0,0,1,1.84-.66h14.19a2.63,2.63,0,0,1,1.84.66,2.25,2.25,0,0,1,.71,1.78,2.16,2.16,0,0,1-.71,1.63,2.56,2.56,0,0,1-1.84.68Zm13.7,26.52a10,10,0,0,1-5.43-1.51,10.79,10.79,0,0,1-3.79-4.09,12.38,12.38,0,0,1-1.4-5.91V70.68A2.65,2.65,0,0,1,415.11,68h.18a2.73,2.73,0,0,1,2,.78,2.62,2.62,0,0,1,.77,2V99.22a6.45,6.45,0,0,0,1.46,4.33,4.57,4.57,0,0,0,3.64,1.73h1.9a2.2,2.2,0,0,1,1.71.77,2.86,2.86,0,0,1,.68,2,2.47,2.47,0,0,1-.89,2,3.32,3.32,0,0,1-2.26.77Z" transform="translate(-32.93 -50.14)"/><path class="cls-12" d="M447.45,109.54a2.5,2.5,0,0,1-3.33-1.19l-.05-.12L430.59,81.9a2.39,2.39,0,0,1-.14-2,2.9,2.9,0,0,1,3.4-1.48,2.53,2.53,0,0,1,1.42,1.36l13,26.35a3.27,3.27,0,0,1,.38,2A1.78,1.78,0,0,1,447.45,109.54Zm-6.81,15.37a3.47,3.47,0,0,1-1.31-.29c-1.62-.71-2.08-1.85-1.36-3.44l18.45-41.35a2.41,2.41,0,0,1,3.44-1.31c1.67.71,2.12,1.86,1.37,3.44L442.7,123.25a2.19,2.19,0,0,1-2.07,1.67Z" transform="translate(-32.93 -50.14)"/><path class="cls-13" d="M250.58,167.73a2.75,2.75,0,0,1-2.84-2.65.6.6,0,0,1,0-.19V124.23a2.74,2.74,0,0,1,2.64-2.84h.2a2.64,2.64,0,0,1,2,.81,2.8,2.8,0,0,1,.77,2v17.5h28V124.23a2.69,2.69,0,0,1,.83-2,2.82,2.82,0,0,1,2-.81,2.66,2.66,0,0,1,2,.81,2.89,2.89,0,0,1,.77,2v40.64a2.87,2.87,0,0,1-.77,2,2.74,2.74,0,0,1-2,.81,2.82,2.82,0,0,1-2-.81,2.72,2.72,0,0,1-.83-2V146.78h-28v18.09a2.83,2.83,0,0,1-.77,2A2.66,2.66,0,0,1,250.58,167.73Z" transform="translate(-32.93 -50.14)"/><path class="cls-14" d="M312.11,168a15.27,15.27,0,0,1-7.41-1.75,12.68,12.68,0,0,1-5.16-5.13,16.57,16.57,0,0,1-1.9-8.24V138a2.79,2.79,0,1,1,5.57,0h0v14.89a11.16,11.16,0,0,0,1.31,5.68,8.32,8.32,0,0,0,3.53,3.32,11.14,11.14,0,0,0,5,1.1,10.42,10.42,0,0,0,4.78-1.08,8.93,8.93,0,0,0,3.35-2.84,6.84,6.84,0,0,0,1.25-4H326a12.77,12.77,0,0,1-1.9,6.64,13,13,0,0,1-5,4.66A14.45,14.45,0,0,1,312.11,168Zm13.07-.28a2.65,2.65,0,0,1-2.73-2.79V138a2.68,2.68,0,0,1,.77-2,2.59,2.59,0,0,1,2-.77,2.64,2.64,0,0,1,2.78,2.5,1.41,1.41,0,0,1,0,.29v26.93a2.65,2.65,0,0,1-2.5,2.8h-.28Z" transform="translate(-32.93 -50.14)"/><path class="cls-15" d="M341.44,167.78a2.68,2.68,0,0,1-2-.8,2.77,2.77,0,0,1-.77-2V138.06a2.79,2.79,0,0,1,5.58-.18V165a2.77,2.77,0,0,1-.77,2A2.68,2.68,0,0,1,341.44,167.78Zm24.74,0a2.74,2.74,0,0,1-2.79-2.68v-15a11.26,11.26,0,0,0-1.27-5.66,8.21,8.21,0,0,0-3.5-3.33,11.2,11.2,0,0,0-5-1.09,10.41,10.41,0,0,0-4.78,1.06,9,9,0,0,0-3.35,2.84,6.87,6.87,0,0,0-1.25,4h-3.64a12.81,12.81,0,0,1,1.9-6.68,13.22,13.22,0,0,1,5-4.63,14.69,14.69,0,0,1,7.06-1.7,15.33,15.33,0,0,1,7.36,1.75,12.81,12.81,0,0,1,5.16,5.13,16.79,16.79,0,0,1,1.9,8.24V165a2.74,2.74,0,0,1-2.68,2.79h-.11Z" transform="translate(-32.93 -50.14)"/><path class="cls-16" d="M377.38,141.2a2.56,2.56,0,0,1-1.84-.68,2.16,2.16,0,0,1-.71-1.63,2.25,2.25,0,0,1,.71-1.78,2.66,2.66,0,0,1,1.84-.66h14.18a2.64,2.64,0,0,1,1.84.66,2.25,2.25,0,0,1,.71,1.78,2.16,2.16,0,0,1-.71,1.63,2.56,2.56,0,0,1-1.84.68Zm13.71,26.53a10,10,0,0,1-5.43-1.52,10.74,10.74,0,0,1-3.8-4.09,12.38,12.38,0,0,1-1.4-5.91V127.67a2.65,2.65,0,0,1,2.55-2.73h.18a2.73,2.73,0,0,1,2,.78,2.58,2.58,0,0,1,.77,2v28.54a6.45,6.45,0,0,0,1.46,4.33,4.58,4.58,0,0,0,3.65,1.73H393a2.15,2.15,0,0,1,1.71.77,2.84,2.84,0,0,1,.68,2,2.46,2.46,0,0,1-.89,2,3.31,3.31,0,0,1-2.25.78Z" transform="translate(-32.93 -50.14)"/><path class="cls-17" d="M417.85,168a17.5,17.5,0,0,1-8.67-2.11,15.19,15.19,0,0,1-5.93-5.81,16.64,16.64,0,0,1-2.14-8.52,17.59,17.59,0,0,1,2-8.57,14.76,14.76,0,0,1,5.6-5.81A15.89,15.89,0,0,1,417,135a14.83,14.83,0,0,1,7.92,2.05,13.38,13.38,0,0,1,5.13,5.64,18.33,18.33,0,0,1,1.78,8.27,2.29,2.29,0,0,1-.71,1.75,2.56,2.56,0,0,1-1.84.68H404.91V149H429.3l-2.5,1.72a12.73,12.73,0,0,0-1.18-5.6,9.5,9.5,0,0,0-3.38-3.89,9.61,9.61,0,0,0-5.29-1.42,10.93,10.93,0,0,0-5.84,1.52,9.7,9.7,0,0,0-3.74,4.18,13.88,13.88,0,0,0-1.27,6.05,11.82,11.82,0,0,0,1.51,6,11.05,11.05,0,0,0,4.15,4.16,12.1,12.1,0,0,0,6.09,1.51,11.77,11.77,0,0,0,3.94-.71,12.05,12.05,0,0,0,3.23-1.66,3.28,3.28,0,0,1,1.78-.63,2.48,2.48,0,0,1,1.67.57,2.59,2.59,0,0,1,1,1.81,1.92,1.92,0,0,1-.89,1.7,15.9,15.9,0,0,1-5,2.64A17.63,17.63,0,0,1,417.85,168Z" transform="translate(-32.93 -50.14)"/><path class="cls-18" d="M442.24,167.73a2.76,2.76,0,0,1-2-.69,2.73,2.73,0,0,1-.71-2V138a2.71,2.71,0,0,1,.71-2,2.75,2.75,0,0,1,2-.71,2.82,2.82,0,0,1,2,.68A2.76,2.76,0,0,1,445,138v27a2.78,2.78,0,0,1-.68,2A2.7,2.7,0,0,1,442.24,167.73Zm-.18-20.18a12.51,12.51,0,0,1,1.81-6.47A13,13,0,0,1,455,134.91a9.45,9.45,0,0,1,4.93,1,2.3,2.3,0,0,1,1.3,2.58,2.4,2.4,0,0,1-.74,1.25,2.07,2.07,0,0,1-1.22.47,5,5,0,0,1-1.54-.12,15.76,15.76,0,0,0-6.55.18,9.18,9.18,0,0,0-4.55,2.61,6.69,6.69,0,0,0-1.66,4.63Z" transform="translate(-32.93 -50.14)"/></svg>