<svg id="Layer_1" data-name="Layer 1" xmlns="http://www.w3.org/2000/svg" viewBox="0 0 501.35 384.2"><defs><style>.cls-1{fill:#64dfdf;}.cls-2{opacity:0.07;}.cls-3{fill:#80ffdb;}.cls-4{fill:#a0f0f2;}.cls-5{fill:#7de2e2;}.cls-6{fill:#fff;}</style></defs><title>logo</title><path class="cls-1" d="M397.82,79.83H116.7c-20.17,0-57.61,36.21-69.12,52.78l-24,34.95a54.41,54.41,0,0,0,5.59,68.85l190.46,197a52.31,52.31,0,0,0,75.23,0l190.45-197a54.41,54.41,0,0,0,5.59-68.85l-42.54-61.27A61.55,61.55,0,0,0,397.82,79.83Z" transform="translate(-6.58 -72.49)"/><path class="cls-2" d="M184.18,79.83H116.7c-20.17,0-57.61,36.21-69.12,52.78l-24,34.95a54.43,54.43,0,0,0,5.59,68.86l190.46,197a52.06,52.06,0,0,0,32.89,15.74S122.26,291.2,122.26,204.28C122.26,148.21,158.48,104.09,184.18,79.83Z" transform="translate(-6.58 -72.49)"/><path class="cls-3" d="M343.64,204.28H500.33a54.3,54.3,0,0,0-9.41-36.72l-42.54-61.28a61.5,61.5,0,0,0-22.91-19.89Z" transform="translate(-6.58 -72.49)"/><path class="cls-3" d="M170.88,204.28H343.64L257.26,79.83Z" transform="translate(-6.58 -72.49)"/><path class="cls-4" d="M89.05,86.39C80,91,53.53,124,47.58,132.61l-24,35a54.31,54.31,0,0,0-9.41,36.71H170.88Z" transform="translate(-6.58 -72.49)"/><path class="cls-5" d="M14.19,204.28a54.3,54.3,0,0,0,15,32.13l190.47,197a52.29,52.29,0,0,0,75.22,0l190.46-197a54.26,54.26,0,0,0,15-32.13Z" transform="translate(-6.58 -72.49)"/><path class="cls-2" d="M122.26,204.28H14.19a54.26,54.26,0,0,0,15,32.13l190.46,197a52.06,52.06,0,0,0,32.89,15.74S122.26,291.2,122.26,204.28Z" transform="translate(-6.58 -72.49)"/><path class="cls-2" d="M122.26,204.28a139.17,139.17,0,0,1,11.2-53.9l-44.41-64C80,91,53.53,124,47.58,132.61l-24,34.95a54.35,54.35,0,0,0-9.41,36.72Z" transform="translate(-6.58 -72.49)"/><path class="cls-6" d="M497,163.38,454.42,102.1a68.92,68.92,0,0,0-56.6-29.61H116.7A68.92,68.92,0,0,0,60.1,102.1L32.82,141a7.35,7.35,0,0,0,12.07,8.38l27.28-38.9A54,54,0,0,1,86.88,96.15l70,100.79H21.3a46.84,46.84,0,0,1,8.34-25.19l15.47-22.29A7.35,7.35,0,0,0,33,141.08l-15.47,22.3a61.9,61.9,0,0,0,6.33,78.14l190.47,197a59.66,59.66,0,0,0,85.78,0l190.47-197A61.89,61.89,0,0,0,497,163.38Zm-54.6-52.9,42.53,61.27a46.84,46.84,0,0,1,8.34,25.19H357.68l70-100.79A53.88,53.88,0,0,1,442.35,110.48ZM414.22,89.73,343.64,191.4,271.3,87.18H397.82A54.27,54.27,0,0,1,414.22,89.73ZM329.6,196.94H184.92L257.26,92.72ZM116.7,87.18H243.22L170.88,191.4,100.3,89.73A54.32,54.32,0,0,1,116.7,87.18ZM34.47,231.31a46.81,46.81,0,0,1-11.36-19.68H165.59l75.88,227.54a44.88,44.88,0,0,1-16.54-10.88Zm445.59,0-190.47,197A44.72,44.72,0,0,1,273,439.17L295.45,372a7.35,7.35,0,0,0-13.94-4.65l-24.25,72.73L181.07,211.63H333.45L291.54,337.26a7.35,7.35,0,0,0,4.65,9.29c.77.26,6.88,2.14,9.29-4.64l43.45-130.28H491.41A46.9,46.9,0,0,1,480.06,231.31Z" transform="translate(-6.58 -72.49)"/></svg>