<?xml version="1.0" encoding="iso-8859-1"?>
<!-- Generator: Adobe Illustrator 19.0.0, SVG Export Plug-In . SVG Version: 6.00 Build 0)  -->
<svg version="1.1" id="Capa_1" xmlns="http://www.w3.org/2000/svg" xmlns:xlink="http://www.w3.org/1999/xlink" x="0px" y="0px"
	 viewBox="0 0 512 512" style="enable-background:new 0 0 512 512;" xml:space="preserve">
<g>
	<g>
		<polygon points="41.868,114.888 118.062,158.877 240.858,87.981 240.858,0 		"/>
	</g>
</g>
<g>
	<g>
		<polygon points="26.727,141.113 26.727,370.887 102.92,326.897 102.92,185.103 		"/>
	</g>
</g>
<g>
	<g>
		<polygon points="271.141,0 271.141,87.981 393.938,158.877 470.131,114.888 		"/>
	</g>
</g>
<g>
	<g>
		<polygon points="256,114.207 133.203,185.103 133.203,326.897 256,397.793 378.796,326.897 378.796,185.103 		"/>
	</g>
</g>
<g>
	<g>
		<polygon points="409.079,185.103 409.079,326.897 485.273,370.887 485.273,141.113 		"/>
	</g>
</g>
<g>
	<g>
		<polygon points="118.062,353.122 41.868,397.112 240.858,512 240.858,424.019 		"/>
	</g>
</g>
<g>
	<g>
		<polygon points="393.938,353.122 271.141,424.019 271.141,512 470.131,397.112 		"/>
	</g>
</g>
<g>
</g>
<g>
</g>
<g>
</g>
<g>
</g>
<g>
</g>
<g>
</g>
<g>
</g>
<g>
</g>
<g>
</g>
<g>
</g>
<g>
</g>
<g>
</g>
<g>
</g>
<g>
</g>
<g>
</g>
</svg>
