<svg xmlns="http://www.w3.org/2000/svg" viewBox="0 0 141.81 121.63"><defs><style>.cls-1{fill:#80ffdb;}.cls-2{fill:#48bfe3;}.cls-3{fill:#ffbd18;}</style></defs><title>treasureAsset 9</title><g id="Layer_2" data-name="Layer 2"><g id="Layer_1-2" data-name="Layer 1"><path class="cls-1" d="M65.9,50.13a5,5,0,1,1,5,5A5,5,0,0,1,65.9,50.13Z"/><path class="cls-2" d="M141.81,48.27v73.36H0V48.27H48.32v5.42a23.43,23.43,0,0,0,.51,4.8H17.12A5.51,5.51,0,0,0,11.61,64v42.79a5.51,5.51,0,0,0,5.51,5.51H125.43a5.51,5.51,0,0,0,5.51-5.51V64a5.51,5.51,0,0,0-5.51-5.51H93.34a22.75,22.75,0,0,0,.51-4.8V48.27h48Z"/><path class="cls-2" d="M141.38,42.27H126.59c-.66-6.93-2-14-4.94-20.4A69.84,69.84,0,0,0,105.37,0h8.22a67.67,67.67,0,0,1,23.94,29.33A61.56,61.56,0,0,1,141.38,42.27Z"/><rect class="cls-3" x="17.62" y="88.56" width="107.31" height="17.73"/><path class="cls-3" d="M124.93,64.2v18H17.62v-18H51.06a22.75,22.75,0,0,0,40.05,0Z"/><path class="cls-3" d="M120.54,44.37H93.85v-2.5a11.55,11.55,0,0,0-2.7-7.55,8.57,8.57,0,0,0-6.49-3.13H57.51c-5.06,0-9.19,4.79-9.19,10.68h0v2.5H21.26c.65-7.31,1.9-14.74,4.61-21.42h90.06C118.65,29.63,119.89,37.06,120.54,44.37Z"/><path class="cls-3" d="M112.6,17.83H29.2A84.52,84.52,0,0,1,41,.73h59.75A84.93,84.93,0,0,1,112.6,17.83Z"/><path class="cls-2" d="M87.84,40.11V53.69a16.76,16.76,0,0,1-33.51.07V40.12a3.18,3.18,0,0,1,3.18-3.18H84.66A3.21,3.21,0,0,1,87.84,40.11ZM73.91,58.76a9.14,9.14,0,1,0-6,0v4a3,3,0,1,0,6,0Z"/><path class="cls-2" d="M28.21,0h8.22c-7.07,6.54-13.34,14.53-17,23.51a66.7,66.7,0,0,0-4.23,18.76H.43A66.31,66.31,0,0,1,28.21,0Z"/></g></g></svg>